<svg width="18" height="18" viewBox="0 0 18 18" fill="none" xmlns="http://www.w3.org/2000/svg">
<path fill-rule="evenodd" clip-rule="evenodd" d="M14.2577 7.96637L8.75614 2.14891C8.39155 1.76338 8.39441 1.1572 8.759 0.77168C9.15354 0.354485 9.82077 0.351107 10.2153 0.768302L17.3502 8.31291C17.7148 8.69843 17.7148 9.30159 17.3502 9.68711L10.2153 17.2317C9.82077 17.6489 9.15354 17.6455 8.759 17.2283C8.39441 16.8428 8.39155 16.2366 8.75614 15.8511L14.2577 10.0336L1 10.0336C0.447715 10.0336 1.18171e-06 9.58593 1.13408e-06 9.03365L1.12827e-06 8.96637C1.08064e-06 8.41409 0.447717 7.96637 1 7.96637L14.2577 7.96637Z" fill="black"/>
</svg>
